<?xml version="1.0" encoding="utf-8"?>
<!-- Generator: Adobe Illustrator 22.0.1, SVG Export Plug-In . SVG Version: 6.00 Build 0)  -->
<svg version="1.1" id="Layer_1" xmlns="http://www.w3.org/2000/svg" xmlns:xlink="http://www.w3.org/1999/xlink" x="0px" y="0px"
	 viewBox="0 0 68.4 85.2" style="enable-background:new 0 0 68.4 85.2;" xml:space="preserve">
<style type="text/css">
	.st0{clip-path:url(#SVGID_2_);fill:#F4D0C8;}
	.st1{clip-path:url(#SVGID_2_);fill:#1D4C8B;}
</style>
<g>
	<defs>
		<rect id="SVGID_1_" width="68.4" height="85.2"/>
	</defs>
	<clipPath id="SVGID_2_">
		<use xlink:href="#SVGID_1_"  style="overflow:visible;"/>
	</clipPath>
	<path class="st0" d="M39.4,74.2c4.2-5.2,9.4-9.5,15.3-12.4c5.1-2.6,10.7-7.3,11.7-15.8c2-16.4-16.7-38.1-19.3-42.3
		c-1.2-2.1-18.9-4.7-22.2,6.6C21.6,21.6-0.8,50.1,2.1,58C5,65.8,13.9,82.8,24.9,83.4C30.4,83.6,35.6,79,39.4,74.2"/>
	<path class="st0" d="M25.4,83.7c-0.2,0-0.3,0-0.5,0C13.4,83.1,4.3,65,1.8,58.1C0,53.3,7.2,41.3,14.2,29.8
		c4.7-7.7,9.1-15.1,10.4-19.6c1.4-4.7,5.5-7.7,11.5-8.5c5-0.6,10.5,0.5,11.3,1.8c0.4,0.7,1.3,1.9,2.4,3.4
		c5.6,7.6,18.6,25.3,16.9,39.2c-1.1,8.9-7.1,13.6-11.9,16c-5.8,2.9-11,7.1-15.2,12.4C34.7,80.6,29.9,83.7,25.4,83.7 M39.2,2.2
		c-1,0-1.9,0.1-2.9,0.2c-4.1,0.5-9.3,2.3-11,8c-1.4,4.6-5.8,12-10.5,19.8C8.2,41,0.7,53.3,2.4,57.8C4.9,64.6,13.8,82.4,24.9,83
		c5.5,0.3,10.8-4.7,14.2-9c4.3-5.4,9.5-9.6,15.4-12.5c4.7-2.3,10.5-6.9,11.5-15.5c1.6-13.5-11.3-31.2-16.8-38.7
		c-1.2-1.6-2-2.7-2.4-3.5C46.5,3.1,43.1,2.2,39.2,2.2"/>
	<path class="st1" d="M51.1,6l-1.2,0.9l-1.2,0.9c5.5,7.4,18.2,24.9,16.6,38.1c-1,8.2-6.6,12.6-11.1,14.9c-6,3-11.3,7.3-15.7,12.8
		c-4.7,5.8-9.1,8.7-13.1,8.7c-0.1,0-0.3,0-0.4,0C14.3,81.6,5.4,63.8,3.2,57.6c-1.5-4.1,6.1-16.8,12.3-27c4.7-7.8,9.2-15.2,10.6-20
		c1.2-4.1,4.9-6.7,10.3-7.4c1-0.1,2-0.2,2.9-0.2c3.6,0,6.5,0.8,6.9,1.3c0.4,0.7,1.3,2,2.5,3.5l1.2-0.9L51.1,6
		c-1.1-1.4-2-2.7-2.3-3.3c-1.4-2.4-8.4-3.1-12.8-2.5C29.3,1,24.8,4.4,23.2,9.8c-1.3,4.4-5.7,11.6-10.3,19.3
		C5.4,41.4-1.7,53.1,0.3,58.6c1.4,3.8,4.4,10.2,8.4,15.5c5.2,7,10.6,10.8,16,11.1c0.2,0,0.4,0,0.6,0c5,0,10.2-3.3,15.4-9.8
		c4.1-5.1,9.1-9.1,14.7-12c5.2-2.6,11.6-7.7,12.7-17.2C70,31.8,56.7,13.7,51.1,6"/>
	<path class="st1" d="M26.9,77.8c-3.6,0-6.6-3-6.6-6.6c0-0.7,0.6-1.3,1.3-1.3c0.7,0,1.3,0.6,1.3,1.3c0,2.2,1.8,4,4,4s4-1.8,4-4
		c0-0.7,0.6-1.3,1.3-1.3c0.7,0,1.3,0.6,1.3,1.3C33.5,74.8,30.6,77.8,26.9,77.8"/>
	<path class="st1" d="M43.7,9.7c-2.1,0.6-3.6,1.9-4.4,3.6c-0.8,1.7-1.2,3.9-1.2,6.7c0.6-0.3,1.2-0.5,1.9-0.5c2.3,0,4.2,1.9,4.2,4.2
		c0,2.3-1.9,4.2-4.2,4.2c-0.7,0-1.3-0.2-1.9-0.5v12.8v0.4v15.9c0,3.5-0.7,6-2.2,7.5c-1.5,1.5-3.8,2.2-6.8,2.2s-5.7-0.7-7.9-2
		c-0.5-0.3-0.7-0.6-0.7-1.1V58c0-0.4,0.2-0.7,0.5-1c0.3-0.3,0.7-0.4,1.2-0.4c0.4,0,0.8,0.1,1.2,0.4c0.3,0.3,0.5,0.6,0.5,1v4.5
		c1.4,0.6,3.2,1,5.3,1c2.1,0,3.6-0.5,4.5-1.6c0.9-1.1,1.4-2.9,1.4-5.4V40.6v-0.4V20.4c0-3.6,0.5-6.5,1.6-8.6
		c1.1-2.1,3.1-3.7,6.1-4.7c0.4-0.1,0.8-0.2,1.2-0.2c0.3,0,0.6,0.1,0.9,0.4c0.3,0.2,0.4,0.6,0.4,1C45.1,9,44.7,9.4,43.7,9.7"/>
</g>
</svg>
